<svg xmlns="http://www.w3.org/2000/svg" xmlns:xlink="http://www.w3.org/1999/xlink" width="85.808" height="59.242" viewBox="0 0 85.808 59.242">
  <defs>
    <clipPath id="clip-path">
      <rect id="Rectangle_1599" data-name="Rectangle 1599" width="85.808" height="59.242" transform="translate(0 0)" fill="none"/>
    </clipPath>
  </defs>
  <g id="Group_2795" data-name="Group 2795" transform="translate(0 0)">
    <g id="Group_2794" data-name="Group 2794" clip-path="url(#clip-path)">
      <path id="Path_3597" data-name="Path 3597" d="M26.984,59.242H21.077a4.1,4.1,0,0,1-4.1-4.1V45.554a1.116,1.116,0,0,1,2.232,0v9.589a1.87,1.87,0,0,0,1.867,1.869h5.907a1.869,1.869,0,0,0,1.867-1.869V51.167a1.116,1.116,0,0,1,2.232,0v3.976a4.1,4.1,0,0,1-4.1,4.1" fill="#54bcaf"/>
      <path id="Path_3598" data-name="Path 3598" d="M80.906,46.671a1.115,1.115,0,0,1-.848-1.84,5.824,5.824,0,0,0,1.4-3.78V32.71a5.81,5.81,0,0,0-1.466-3.861L75.7,24.668a1.116,1.116,0,0,1,1.559-1.6L81.6,27.31a8.07,8.07,0,0,1,2.084,5.4v8.341a8.055,8.055,0,0,1-1.93,5.229,1.112,1.112,0,0,1-.849.391" fill="#54bcaf"/>
      <path id="Path_3599" data-name="Path 3599" d="M80.261,52.282H18.787a1.115,1.115,0,1,1,0-2.23H80.261a1.115,1.115,0,1,1,0,2.23" fill="#54bcaf"/>
      <path id="Path_3600" data-name="Path 3600" d="M18.094,46.671a1.112,1.112,0,0,1-.849-.391,8.059,8.059,0,0,1-1.93-5.229V32.71a8.042,8.042,0,0,1,2.029-5.343l4.393-4.3a1.116,1.116,0,0,1,1.559,1.6l-4.338,4.237a5.782,5.782,0,0,0-1.411,3.8v8.341a5.821,5.821,0,0,0,1.395,3.78,1.115,1.115,0,0,1-.848,1.84" fill="#54bcaf"/>
      <path id="Path_3601" data-name="Path 3601" d="M49.5,26.914a203.355,203.355,0,0,1-20.572-.9C21.4,25.242,21.4,24.812,21.4,23.87a1.118,1.118,0,0,1,1.665-.972c1.123.334,9.332,1.785,26.435,1.785S74.812,23.232,75.935,22.9a1.118,1.118,0,0,1,1.665.972c0,.942,0,1.372-7.529,2.149a203.331,203.331,0,0,1-20.571.9m25.868-3.048h0Zm-51.736,0h0ZM75.471,23.4a1.1,1.1,0,0,0-.1.462,1.116,1.116,0,0,1,.1-.462m-51.942,0a1.116,1.116,0,0,1,.1.462,1.1,1.1,0,0,0-.1-.462" fill="#54bcaf"/>
      <path id="Path_3602" data-name="Path 3602" d="M77.923,59.242H72.016a4.1,4.1,0,0,1-4.1-4.1V51.167a1.116,1.116,0,0,1,2.231,0v3.976a1.87,1.87,0,0,0,1.868,1.869h5.907a1.869,1.869,0,0,0,1.867-1.869V45.554a1.116,1.116,0,0,1,2.232,0v9.589a4.1,4.1,0,0,1-4.1,4.1" fill="#54bcaf"/>
      <path id="Path_3603" data-name="Path 3603" d="M21.574,25.906a1.114,1.114,0,0,1-.513-.126l-4.43-2.3a1.115,1.115,0,1,1,1.028-1.98l4.43,2.3a1.116,1.116,0,0,1-.515,2.106" fill="#54bcaf"/>
      <path id="Path_3604" data-name="Path 3604" d="M77.427,25.906a1.116,1.116,0,0,1-.515-2.106l4.43-2.3a1.115,1.115,0,1,1,1.028,1.98l-4.43,2.3a1.114,1.114,0,0,1-.513.126" fill="#54bcaf"/>
      <path id="Path_3605" data-name="Path 3605" d="M76.485,24.986a1.115,1.115,0,0,1-1-.628l-5.157-10.59a5.738,5.738,0,0,0-4.214-2.862c-3.688-.829-10.162-.943-16.609-.943s-12.923.114-16.609.943a5.745,5.745,0,0,0-4.228,2.888L23.519,24.358a1.115,1.115,0,1,1-2.006-.976l5.158-10.59A7.918,7.918,0,0,1,32.4,8.728c4.093-.919,10.972-1,17.1-1s13,.077,17.1,1a7.908,7.908,0,0,1,5.719,4.038l5.17,10.616a1.117,1.117,0,0,1-1,1.6" fill="#54bcaf"/>
      <path id="Path_3606" data-name="Path 3606" d="M29.487,37.729H26.108a1.314,1.314,0,0,1-1.314-1.314v-.388a1.314,1.314,0,0,1,1.314-1.314h3.379A1.314,1.314,0,0,1,30.8,36.027v.388a1.314,1.314,0,0,1-1.314,1.314" fill="#54bcaf"/>
      <path id="Path_3607" data-name="Path 3607" d="M74.724,37.729H71.345a1.314,1.314,0,0,1-1.314-1.314v-.388a1.314,1.314,0,0,1,1.314-1.314h3.379a1.314,1.314,0,0,1,1.314,1.314v.388a1.314,1.314,0,0,1-1.314,1.314" fill="#54bcaf"/>
      <rect id="Rectangle_1591" data-name="Rectangle 1591" width="1.594" height="4.13" transform="translate(79.37 -0.001)" fill="#fdd53a"/>
      <rect id="Rectangle_1592" data-name="Rectangle 1592" width="1.594" height="4.13" transform="translate(79.37 6.663)" fill="#fdd53a"/>
      <rect id="Rectangle_1593" data-name="Rectangle 1593" width="4.13" height="1.594" transform="translate(81.678 4.484)" fill="#fdd53a"/>
      <rect id="Rectangle_1594" data-name="Rectangle 1594" width="4.13" height="1.594" transform="translate(73.935 4.484)" fill="#fdd53a"/>
      <rect id="Rectangle_1595" data-name="Rectangle 1595" width="1.594" height="4.13" transform="translate(5.435 39.329)" fill="#fdd53a"/>
      <rect id="Rectangle_1596" data-name="Rectangle 1596" width="1.594" height="4.13" transform="translate(5.435 45.993)" fill="#fdd53a"/>
      <rect id="Rectangle_1597" data-name="Rectangle 1597" width="4.13" height="1.594" transform="translate(7.742 43.815)" fill="#fdd53a"/>
      <rect id="Rectangle_1598" data-name="Rectangle 1598" width="4.13" height="1.594" transform="translate(0 43.815)" fill="#fdd53a"/>
    </g>
  </g>
</svg>
