<svg id="_ÎÓÈ_5" data-name="—ÎÓÈ_5" xmlns="http://www.w3.org/2000/svg" width="39" height="31.64" viewBox="0 0 39 31.64"><defs><style>.cls-1{fill:#fbd925;}.cls-2{fill:#61c3b9;}</style></defs><path class="cls-1" d="M324.39,135.16H321.8a.68.68,0,0,1-.66-.52l-.5-2a8.73,8.73,0,0,1-1.7-.71L317.16,133a.68.68,0,0,1-.83-.1l-1.82-1.84a.66.66,0,0,1-.11-.82l1.08-1.79a7.82,7.82,0,0,1-.7-1.69l-2-.5a.68.68,0,0,1-.52-.66V123a.66.66,0,0,1,.52-.65l2-.51a8.86,8.86,0,0,1,.7-1.69l-1.08-1.78a.67.67,0,0,1,.11-.83l1.82-1.83a.68.68,0,0,1,.83-.1l1.79,1.07a8.86,8.86,0,0,1,1.69-.7l.5-2a.69.69,0,0,1,.66-.52h2.59a.69.69,0,0,1,.66.52l.5,2a8.86,8.86,0,0,1,1.69.7l1.78-1.07a.68.68,0,0,1,.83.1l1.83,1.83a.68.68,0,0,1,.1.83l-1.07,1.78a8.86,8.86,0,0,1,.7,1.69l2,.51a.67.67,0,0,1,.52.65v2.59a.69.69,0,0,1-.52.66l-2,.5a8.34,8.34,0,0,1-.7,1.7l1.07,1.78a.67.67,0,0,1-.1.82l-1.83,1.84a.68.68,0,0,1-.83.1l-1.78-1.08a8.64,8.64,0,0,1-1.69.71l-.5,2A.68.68,0,0,1,324.39,135.16Zm-2.06-1.36h1.53l.46-1.89a.71.71,0,0,1,.5-.49,7.43,7.43,0,0,0,2.08-.86.68.68,0,0,1,.7,0l1.67,1,1.08-1.08-1-1.67h0a.6.6,0,0,1-.09-.33h0a.44.44,0,0,1,0-.16.46.46,0,0,1,.08-.19,7.41,7.41,0,0,0,.85-2.06.88.88,0,0,1,.05-.15.71.71,0,0,1,.45-.36l1.89-.47v-1.53l-1.89-.47a.67.67,0,0,1-.5-.49,7.56,7.56,0,0,0-.86-2.08.68.68,0,0,1,0-.7l1-1.67-1.08-1.08-1.67,1a.68.68,0,0,1-.7,0,7.43,7.43,0,0,0-2.08-.86.68.68,0,0,1-.49-.49l-.47-1.9h-1.53l-.47,1.9a.67.67,0,0,1-.5.49,7.63,7.63,0,0,0-2.07.86h0a.64.64,0,0,1-.34.09h0l-.16,0a.64.64,0,0,1-.19-.08l-1.67-1-1.08,1.08,1,1.67a.7.7,0,0,1,0,.71,6.83,6.83,0,0,0-.86,2.07.67.67,0,0,1-.5.49l-1.89.47v1.53l1.89.47a.67.67,0,0,1,.5.5,7.07,7.07,0,0,0,.85,2.07.66.66,0,0,1,0,.7l-1,1.67,1.08,1.08,1.67-1a.68.68,0,0,1,.7,0,7.37,7.37,0,0,0,2.07.86.67.67,0,0,1,.5.49Z" transform="translate(-303.76 -103.52)"/><path class="cls-1" d="M323.09,128.31a4,4,0,1,1,4-4A4,4,0,0,1,323.09,128.31Zm0-6.66a2.66,2.66,0,1,0,2.66,2.66A2.66,2.66,0,0,0,323.09,121.65Z" transform="translate(-303.76 -103.52)"/><path class="cls-2" d="M342.76,109.61V105.9a2.38,2.38,0,0,0-2.37-2.38H306.14a2.39,2.39,0,0,0-2.38,2.38v3.72h0v19.64a2.39,2.39,0,0,0,2.38,2.38h6.26a.68.68,0,1,0,0-1.36h-6.26a1,1,0,0,1-1-1v-19H341.4v19a1,1,0,0,1-1,1h-6.54a.68.68,0,1,0,0,1.36h6.54a2.38,2.38,0,0,0,2.37-2.38V109.62Zm-37.64-.67v-3a1,1,0,0,1,1-1h34.25a1,1,0,0,1,1,1v3Z" transform="translate(-303.76 -103.52)"/><path class="cls-2" d="M308.43,106.23h-.69a.68.68,0,0,0,0,1.36h.69a.68.68,0,1,0,0-1.36Z" transform="translate(-303.76 -103.52)"/><path class="cls-2" d="M311.48,106.23h-.68a.68.68,0,1,0,0,1.36h.68a.68.68,0,1,0,0-1.36Z" transform="translate(-303.76 -103.52)"/><path class="cls-2" d="M314.53,106.23h-.68a.68.68,0,1,0,0,1.36h.68a.68.68,0,1,0,0-1.36Z" transform="translate(-303.76 -103.52)"/></svg>