<svg id="_ÎÓÈ_5" data-name="—ÎÓÈ_5" xmlns="http://www.w3.org/2000/svg" width="31.33" height="24.88" viewBox="0 0 31.33 24.88"><defs><style>.cls-1{fill:#61c3b9;}.cls-2{fill:#77c1b9;}.cls-3{fill:#fbd925;}.cls-4{fill:#f6db43;}</style></defs><rect class="cls-1" x="0.46" y="23.88" width="30.68" height="1"/><path class="cls-2" d="M463.12,161.78a2.62,2.62,0,0,0-2.41,2.56v3.59a2.61,2.61,0,0,0,2.61,2.49h1.07a3.11,3.11,0,0,0,1.65,2.23,3.05,3.05,0,0,0,2.76,0,3.11,3.11,0,0,0,1.65-2.23h10.32a3.11,3.11,0,0,0,1.65,2.23,3.05,3.05,0,0,0,2.76,0,3.11,3.11,0,0,0,1.65-2.23h2.09a2.53,2.53,0,0,0,2.56-2.56v-2.29a2.6,2.6,0,0,0-.66-1.69,2.63,2.63,0,0,0-1.59-.87l-3.12-.43a8.23,8.23,0,0,1-5.12-2.71l-.72-.71a4.51,4.51,0,0,0-3.38-1.52h-6.71a4.51,4.51,0,0,0-3.89,2.2l-.15.25a3.78,3.78,0,0,1-3,1.69ZM483.8,172a2.05,2.05,0,1,1,0-4.1,2.05,2.05,0,1,1,0,4.1Zm-16.38,0a2,2,0,0,1-2-2,2.05,2.05,0,0,1,4.1,0,2,2,0,0,1-2.06,2.05Zm-5.63-7.67a1.53,1.53,0,0,1,.41-1.06,1.49,1.49,0,0,1,1-.48,4.76,4.76,0,0,0,3.84-2.2l.16-.26a3.57,3.57,0,0,1,3-1.66h6.72a3.41,3.41,0,0,1,2.61,1.18l.71.83a9.06,9.06,0,0,0,5.78,3h0l3.12.41a1.49,1.49,0,0,1,1,.49,1.41,1.41,0,0,1,.37,1v2.29a1.5,1.5,0,0,1-1.55,1.52h-2.11a3.07,3.07,0,0,0-1.76-2.29h0l-.06,0h0l-.1,0h0l-.12,0h0l-.12,0h0l-.12,0h0l-.12,0h-1l-.12,0h0l-.11,0h0l-.11.07h0l-.11,0h0l-.1,0h-.09a3.07,3.07,0,0,0-1.76,2.29H470.45a3.11,3.11,0,0,0-1.77-2.29h0l-.06,0h0l-.1-.05h0l-.11,0h0l-.12,0h0l-.11,0h0l-.11,0h-1l-.11,0h0l-.12,0h0l-.11,0h0l-.11,0h0l-.1.05h0l-.06,0a3.12,3.12,0,0,0-1.77,2.29h-1.07a1.54,1.54,0,0,1-1.09-.45,1.49,1.49,0,0,1-.44-1.09Z" transform="translate(-460.14 -149.43)"/><path class="cls-3" d="M471.83,167.44a2.59,2.59,0,0,1-2.3-2.92,2.12,2.12,0,0,1,.9-1.44,3.14,3.14,0,0,1,1.8-.41,2.3,2.3,0,0,1,2.18-2.19,2.78,2.78,0,0,1,2.65,1.56c.8-.15,2.44-.27,3.17,1a2.78,2.78,0,0,1-.71,3.29l-.68-.73s1.09-1,.52-2.07-2.43-.46-2.45-.46l-.48.15-.14-.48a1.83,1.83,0,0,0-1.84-1.29c-1.27.06-1.26,1.56-1.25,1.73l0,.64-.63-.13a2.42,2.42,0,0,0-1.61.2,1.14,1.14,0,0,0-.47.78c-.25,1.4,1.43,1.74,1.51,1.76Z" transform="translate(-460.14 -149.43)"/><path class="cls-3" d="M460.75,161.51a5,5,0,0,1-.45-3.45,3.09,3.09,0,0,1,1.62-1.85,3.65,3.65,0,0,1,4.24.31,2.36,2.36,0,0,1,2.08-1.09,2.06,2.06,0,0,1,1.94,1.57l-1,.22a1.06,1.06,0,0,0-1-.79c-1-.05-1.44,1.06-1.46,1.11l-.32.94-.57-.82a2.57,2.57,0,0,0-3.47-.56,2.08,2.08,0,0,0-1.13,1.26,4.08,4.08,0,0,0,.38,2.68Z" transform="translate(-460.14 -149.43)"/><path class="cls-4" d="M479.17,155.42a2.9,2.9,0,0,1,2.42.15l.21.09.19-.11a2.34,2.34,0,0,1,2.38.11,2.11,2.11,0,0,1,1,1.46,6.77,6.77,0,0,0-1.93,0l.14.91c.62-.09,2.39-.13,3.22.81.57.64.66,1.68.26,3.08l.89.25c.48-1.72.33-3-.46-3.94a3.12,3.12,0,0,0-1.18-.81,3,3,0,0,0-1.42-2.5,3.29,3.29,0,0,0-3.11-.24,3.66,3.66,0,0,0-3,0,3.54,3.54,0,0,0-1.72,2.08l.89.25a2.6,2.6,0,0,1,1.24-1.51Z" transform="translate(-460.14 -149.43)"/><path class="cls-4" d="M472.89,156.9a2.32,2.32,0,1,1,2.32-2.31A2.32,2.32,0,0,1,472.89,156.9Zm0-3.63a1.32,1.32,0,1,0,1.32,1.32A1.32,1.32,0,0,0,472.89,153.27Z" transform="translate(-460.14 -149.43)"/><path class="cls-4" d="M477.1,154.08a1.73,1.73,0,1,1,1.72-1.73A1.72,1.72,0,0,1,477.1,154.08Zm0-2.45a.73.73,0,1,0,.72.72A.72.72,0,0,0,477.1,151.63Z" transform="translate(-460.14 -149.43)"/><path class="cls-4" d="M472,151.29a.58.58,0,0,1,0-.14.73.73,0,0,1,.73-.72.72.72,0,0,1,.72.72.19.19,0,0,1,0,.08,2.35,2.35,0,0,1,.92.5,1.81,1.81,0,0,0,.1-.58,1.73,1.73,0,0,0-3.45,0,1.68,1.68,0,0,0,.16.71A2.31,2.31,0,0,1,472,151.29Z" transform="translate(-460.14 -149.43)"/></svg>