<svg id="Icons" xmlns="http://www.w3.org/2000/svg" width="37.1" height="32.12" viewBox="0 0 37.1 32.12">
  <defs>
    <style>
      .cls-1 {
        fill: #61c3b9;
      }

      .cls-2 {
        fill: #fbd925;
      }
    </style>
  </defs>
  <path class="cls-1" d="M27.42,43.07a15.93,15.93,0,0,1-11.07-4.44l-.13-.12A16,16,0,0,1,38.37,15.4l8.79,8.42a4,4,0,0,1,.13,5.66L39,38.15A16,16,0,0,1,27.42,43.07ZM27.3,12.45a14.51,14.51,0,0,0-10,25l.12.12a14.53,14.53,0,0,0,20.52-.44l8.3-8.67a2.51,2.51,0,0,0-.07-3.53l-8.8-8.43A14.46,14.46,0,0,0,27.3,12.45Z" transform="translate(-11.3 -10.96)"/>
  <path class="cls-2" d="M32.06,24.11a1.05,1.05,0,0,1,1.56,0,1.18,1.18,0,0,1,.32.77,1.06,1.06,0,0,1-.32.78,1.94,1.94,0,0,0,0,2.78A1.1,1.1,0,1,1,32.06,30a4.18,4.18,0,0,1,0-5.89Z" transform="translate(-11.3 -10.96)"/>
  <path class="cls-2" d="M30.38,20.87a1.2,1.2,0,0,1,.32.77,1,1,0,0,1-.32.78,6.6,6.6,0,0,0,0,9.26,1.1,1.1,0,1,1-1.56,1.55,8.71,8.71,0,0,1,0-12.36,1.05,1.05,0,0,1,1.56,0Z" transform="translate(-11.3 -10.96)"/>
  <path class="cls-2" d="M25.59,17.57a1,1,0,0,1,1.55,0,1.14,1.14,0,0,1,.32.77,1.16,1.16,0,0,1-.32.78,11.13,11.13,0,0,0,0,15.73,1.07,1.07,0,0,1,0,1.56,1.06,1.06,0,0,1-1.55,0,13.36,13.36,0,0,1,0-18.84Z" transform="translate(-11.3 -10.96)"/>
</svg>
