<svg id="_ÎÓÈ_5" data-name="—ÎÓÈ_5" xmlns="http://www.w3.org/2000/svg" width="30" height="30.84" viewBox="0 0 30 30.84"><defs><style>.cls-1{fill:#fbd925;}.cls-2{fill:#61c3b9;}</style></defs><path class="cls-1" d="M373.51,164.77a1.27,1.27,0,0,0-2.32,0l-1.11,2.6-2.81.25a1.27,1.27,0,0,0-1.08.87,1.25,1.25,0,0,0,.37,1.34l2.12,1.86-.63,2.75a1.26,1.26,0,0,0,1.88,1.36l2.42-1.44,2.41,1.44a1.28,1.28,0,0,0,.65.18,1.26,1.26,0,0,0,1.23-1.54l-.62-2.75,2.12-1.86a1.26,1.26,0,0,0-.72-2.21l-2.8-.25Zm1.32,6.17a.66.66,0,0,0-.21.65l.67,3-2.6-1.55a.67.67,0,0,0-.34-.09.73.73,0,0,0-.35.09l-2.6,1.55.68-3a.67.67,0,0,0-.22-.65l-2.28-2,3-.27a.67.67,0,0,0,.56-.41l1.19-2.79,1.19,2.79a.67.67,0,0,0,.56.41l3,.27Z" transform="translate(-357.35 -148)"/><path class="cls-2" d="M385.56,154.44h-5a4.29,4.29,0,0,0,.55-.72l0-.06h0l.07-.15a3.48,3.48,0,0,0-.19-3.55h0l-.09-.13,0-.06-.05-.06h0l-.1-.12h0a4.44,4.44,0,0,0-2.72-1.47,4.77,4.77,0,0,0-.76-.06H377a4.4,4.4,0,0,0-3.74,2.28l-.92,1.82-.93-1.82s-.05-.09-.07-.14l0,0s0-.06-.06-.1l0,0-.06-.09,0,0h0l-.07-.09h0l0,0a2.51,2.51,0,0,0-.19-.24h0l0,0-.08-.09,0,0a.3.3,0,0,0-.08-.08h0v0h0l-.09-.08h0v0l-.25-.2h0a.94.94,0,0,1-.12-.09h0l-.1-.07,0,0-.11-.06,0,0a2.1,2.1,0,0,0-.3-.15,4.84,4.84,0,0,0-1.81-.46h-.27a4.57,4.57,0,0,0-3.47,1.52h0a1.13,1.13,0,0,1-.1.13l-.05.06,0,.08-.09.12h0a3.48,3.48,0,0,0-.19,3.55l.08.15v0l0,0h0a4,4,0,0,0,.56.73h-5a1.76,1.76,0,0,0-1.79,1.72v5.39a1.75,1.75,0,0,0,1.77,1.71V177a1.87,1.87,0,0,0,1.91,1.83h22.63a1.87,1.87,0,0,0,1.91-1.83V163.26a1.76,1.76,0,0,0,1.78-1.71v-5.39A1.76,1.76,0,0,0,385.56,154.44Zm-18.42,0h-.07a3.09,3.09,0,0,1-2.36-1.39h0l-.07-.15a2.14,2.14,0,0,1,.13-2.22h0l.05-.07,0-.05v0l0,0,.07-.08h0a3.23,3.23,0,0,1,2.46-1.06h.19a3.67,3.67,0,0,1,1.32.33l.21.11h0l.09.05h0l.08.05h0l.07.05h0l.17.14h0l.06,0,0,0h0l.05.05h0v0l.07.06v0l.13.15v0h0l0,.05,0,0v0l0,.06v0l0,.06h0v0a.41.41,0,0,0,.05.09l1.52,3a.65.65,0,0,0,.6.37.68.68,0,0,0,.6-.37l1.52-3a3.05,3.05,0,0,1,2.61-1.55h.19a4.91,4.91,0,0,1,.55,0,3.08,3.08,0,0,1,1.91,1h0l.06.08,0,0,0,0a.35.35,0,0,1,.05.08h0a2.14,2.14,0,0,1,.12,2.21L380,153a2.88,2.88,0,0,1-1.38,1.16,3.51,3.51,0,0,1-1.12.25H367.14Zm3.53,7.48v-6.13H374v6.13Zm-12-.37v-5.39a.42.42,0,0,1,.45-.38h10.19v6.13H359.14A.41.41,0,0,1,358.69,161.55ZM384.23,177a.53.53,0,0,1-.57.49H361a.54.54,0,0,1-.57-.49V163.26h23.77ZM386,161.55a.42.42,0,0,1-.45.37H375.37v-6.13h10.19a.42.42,0,0,1,.45.38Z" transform="translate(-357.35 -148)"/></svg>