<svg id="_ÎÓÈ_5" data-name="—ÎÓÈ_5" xmlns="http://www.w3.org/2000/svg" width="34" height="30.31" viewBox="0 0 34 30.31"><defs><style>.cls-1{fill:#fbd925;}.cls-2{fill:#61c3b9;}</style></defs><path class="cls-1" d="M373.68,162.63l-2.92-.26-1.15-2.7a1.27,1.27,0,0,0-2.33,0l-1.15,2.7-2.92.26a1.27,1.27,0,0,0-.71,2.22l2.2,1.93-.65,2.86a1.27,1.27,0,0,0,.49,1.31,1.26,1.26,0,0,0,.74.24,1.22,1.22,0,0,0,.65-.18l2.52-1.5L371,171a1.26,1.26,0,0,0,1.39-.06,1.27,1.27,0,0,0,.49-1.31l-.65-2.86,2.2-1.93a1.26,1.26,0,0,0,.38-1.34A1.28,1.28,0,0,0,373.68,162.63ZM371,166.05a.67.67,0,0,0-.21.64l.71,3.13-2.75-1.64a.61.61,0,0,0-.67,0l-2.75,1.64.71-3.13a.67.67,0,0,0-.21-.64l-2.41-2.11,3.19-.29a.7.7,0,0,0,.55-.4l1.26-2.95,1.26,2.95a.67.67,0,0,0,.54.4l3.19.29Z" transform="translate(-351.45 -144.56)"/><path class="cls-2" d="M385.45,152.6a2.59,2.59,0,1,0-4,2.18,9.11,9.11,0,0,1-1.25,2.07,4.2,4.2,0,0,1-.41.44c-1.52-2.31-4.86-4-8.92-4.52a26.35,26.35,0,0,1-1.22-3.35,2.59,2.59,0,1,0-2.45,0,26.35,26.35,0,0,1-1.22,3.35,16.22,16.22,0,0,0-5.83,1.8,8.74,8.74,0,0,0-3.09,2.71,5.6,5.6,0,0,1-.41-.43,9.11,9.11,0,0,1-1.25-2.07,2.58,2.58,0,1,0-1.74.38L355.59,167h0a.66.66,0,0,0-.66.66v6.6a.67.67,0,0,0,.66.66h25.73a.67.67,0,0,0,.66-.66v-6.6a.66.66,0,0,0-.66-.66h0l1.91-11.79A2.59,2.59,0,0,0,385.45,152.6Zm-2.59-1.27a1.27,1.27,0,1,1-1.27,1.27A1.27,1.27,0,0,1,382.86,151.33ZM378.71,158a4.66,4.66,0,0,1-1.94.42h0a4.38,4.38,0,0,1-3.43-1.62,17.21,17.21,0,0,1-1.71-2.61C374.85,154.78,377.52,156.2,378.71,158Zm-10.26-12.15a1.27,1.27,0,1,1-1.27,1.27A1.27,1.27,0,0,1,368.45,145.87Zm-3.16,8.34a17.65,17.65,0,0,1-1.7,2.61,4.41,4.41,0,0,1-3.44,1.62h0a4.52,4.52,0,0,1-1.94-.43C359.37,156.19,362,154.77,365.29,154.21Zm-12.53-1.61a1.27,1.27,0,1,1,1.27,1.27A1.27,1.27,0,0,1,352.76,152.6ZM374.55,167v1.32h6.1v5.28H356.24v-5.28h5.36V167h-4.67l-1.56-9.63.28.36a5.73,5.73,0,0,0,4.47,2.07h0a5.72,5.72,0,0,0,4.46-2.11,23.26,23.26,0,0,0,3.83-7.71,23,23,0,0,0,3.83,7.71,5.68,5.68,0,0,0,4.45,2.11h0a5.73,5.73,0,0,0,4.47-2.07l.29-.36L380,167Z" transform="translate(-351.45 -144.56)"/></svg>