<svg id="_ÎÓÈ_5" data-name="—ÎÓÈ_5" xmlns="http://www.w3.org/2000/svg" width="19" height="29.56" viewBox="0 0 19 29.56"><defs><style>.cls-1{fill:#61c3b9;}.cls-2{fill:#fbd925;}</style></defs><path class="cls-1" d="M300.41,128.4H289.09a3.84,3.84,0,0,0-3.84,3.84v21.88a3.84,3.84,0,0,0,3.84,3.84h11.32a3.84,3.84,0,0,0,3.84-3.84V132.24A3.84,3.84,0,0,0,300.41,128.4Zm-11.32,1.29h11.32a2.55,2.55,0,0,1,2.55,2.55v19.22H286.54V132.24A2.55,2.55,0,0,1,289.09,129.69Zm11.32,27H289.09a2.55,2.55,0,0,1-2.55-2.55v-1.38H303v1.38A2.55,2.55,0,0,1,300.41,156.67Z" transform="translate(-285.25 -128.4)"/><rect class="cls-1" x="7.66" y="25.38" width="3.79" height="1.29"/><rect class="cls-1" x="8.83" y="2.62" width="1.47" height="1.29"/><path class="cls-2" d="M288.83,141.81l2.23,2-.66,2.89a1.25,1.25,0,0,0,.49,1.3,1.21,1.21,0,0,0,.73.24,1.25,1.25,0,0,0,.65-.18l2.54-1.52,2.54,1.52a1.28,1.28,0,0,0,.65.18,1.26,1.26,0,0,0,1.23-1.54l-.66-2.89,2.23-2a1.26,1.26,0,0,0,.37-1.33,1.27,1.27,0,0,0-1.09-.87l-2.94-.27L296,136.61a1.26,1.26,0,0,0-2.31,0l-1.17,2.73-2.95.27a1.26,1.26,0,0,0-.71,2.2Zm4.16-1.22a.62.62,0,0,0,.53-.39l1.29-3,1.29,3a.64.64,0,0,0,.54.39l3.26.3-2.47,2.16a.65.65,0,0,0-.2.63l.72,3.2-2.81-1.68a.63.63,0,0,0-.33-.09.66.66,0,0,0-.33.09l-2.81,1.68.73-3.2a.66.66,0,0,0-.21-.63l-2.46-2.16Z" transform="translate(-285.25 -128.4)"/></svg>