<svg id="_ÎÓÈ_5" data-name="—ÎÓÈ_5" xmlns="http://www.w3.org/2000/svg" width="42" height="31.3" viewBox="0 0 42 31.3"><defs><style>.cls-1{fill:#61c3b9;}.cls-2{fill:#fbd925;}</style></defs><path class="cls-1" d="M212.57,138.22v8.1H179V129.69h18.5l.48-2.1H179v-2.07H198.5a4.6,4.6,0,0,1,1.58-2.09H176.91v25h37.76V136.85a4.15,4.15,0,0,1-1.12.85Z" transform="translate(-176.91 -117.12)"/><path class="cls-2" d="M218.23,121.93l-5.65-4.42a1.79,1.79,0,0,0-1.08-.39,1.65,1.65,0,0,0-1.56,1.21l-.75,2.4a2.09,2.09,0,0,0-.08.5,1.79,1.79,0,0,0-.32.13l-7.22,3.31a2.72,2.72,0,0,0-1.41,1.79L197.07,140a2.33,2.33,0,0,0,.83,2.26l.12.1a2.27,2.27,0,0,0,1.38.44h0a2.2,2.2,0,0,0,1-.24l12.24-6.53a2.71,2.71,0,0,0,1.38-1.86l1.24-7.79a1.35,1.35,0,0,0,0-.29,2.05,2.05,0,0,0,.43-.18l2.26-1.26a1.6,1.6,0,0,0,.21-2.75ZM212,133.85a.63.63,0,0,1-.27.34l-10.47,5.59,4.94-6.47a3.12,3.12,0,0,0,1,.18l.43,0a3.21,3.21,0,0,0,2.14-1.25,3.16,3.16,0,0,0,.64-2.39,3.24,3.24,0,0,0-3.64-2.78,3.22,3.22,0,0,0-2.78,3.64,3.13,3.13,0,0,0,.52,1.35l-4.94,6.48,2.64-11.62a.83.83,0,0,1,.24-.31l7.25-3.33.11,0c.05,0,.08,0,.06,0l.12.09h0l3.1,2.43h0l.09.07s.05.12.06.13Zm-5.69-4.3a1.17,1.17,0,0,1,.76-.44h.15a1.15,1.15,0,0,1,.91,1.84,1.17,1.17,0,0,1-.76.44,1.15,1.15,0,0,1-1.28-1A1.18,1.18,0,0,1,206.29,129.55Zm8.45-5.44a.58.58,0,0,1-.14,0,.41.41,0,0,1-.22,0l-.43-.34-2.66-2.09a.45.45,0,0,1-.1-.3l.57-1.81,4.65,3.63Z" transform="translate(-176.91 -117.12)"/><path class="cls-1" d="M188.83,145.05v-1.49l.12,0a3.29,3.29,0,0,0,3-3c.08-2.6-2.64-3.34-4.27-3.78-.38-.11-.74-.2-1-.29-.37-.16-.79-.44-.7-.88a1.61,1.61,0,0,1,1.69-1,2.94,2.94,0,0,1,2.43,1.26l1.79-1.09a5,5,0,0,0-3.06-2.13v-1.49h-2.1v1.47a3.49,3.49,0,0,0-2.81,2.6,2.88,2.88,0,0,0,2,3.22,10.28,10.28,0,0,0,1.21.38c1.79.49,2.75.9,2.73,1.69s-1,1-1.28,1a2.75,2.75,0,0,1-3-1.16l-1.91.88a4.26,4.26,0,0,0,3.12,2.32v1.53Z" transform="translate(-176.91 -117.12)"/></svg>