<svg id="Õ__1" data-name="Õº≤„_1" xmlns="http://www.w3.org/2000/svg" width="35" height="35" viewBox="0 0 35 35"><defs><style>.cls-1{fill:#fbd925;}.cls-2{fill:#61c3b9;}</style></defs><path class="cls-1" d="M89.68,72.69a17.5,17.5,0,1,0,17.5,17.5A17.52,17.52,0,0,0,89.68,72.69Zm0,32.54a15,15,0,1,1,15-15A15.05,15.05,0,0,1,89.68,105.23Z" transform="translate(-72.18 -72.69)"/><path class="cls-2" d="M89.53,84.06a4,4,0,0,1,3.33,2.15l2.2-1.1a6.78,6.78,0,0,0-4.15-3.34V79H88.45v2.77a4.83,4.83,0,0,0-3.69,3.59,4.27,4.27,0,0,0,2.37,4.91,11.5,11.5,0,0,0,1.62.61c2.26.74,3.85,1.41,3.81,3.2a2.33,2.33,0,0,1-2.13,2.16,3.46,3.46,0,0,1-3.88-2.1l-2.3.87a5.67,5.67,0,0,0,4.2,3.59v2.86h2.46V98.61A4.68,4.68,0,0,0,95,94.1c.09-3.76-3.41-4.91-5.51-5.59A13.49,13.49,0,0,1,88.24,88a1.81,1.81,0,0,1-1.08-2.15A2.4,2.4,0,0,1,89.53,84.06Z" transform="translate(-72.18 -72.69)"/></svg>