<svg id="Icons" xmlns="http://www.w3.org/2000/svg" width="38" height="38" viewBox="0 0 38 38"><defs><style>.cls-1{fill:#61c3b9;}.cls-2{fill:#fbd925;}</style></defs><path class="cls-1" d="M2547.78,690.27a.76.76,0,0,0,0-.21.79.79,0,0,0-1.57-.15,14.9,14.9,0,0,1-1.37,3.59h-5.36a29.33,29.33,0,0,0,.68-4.19.79.79,0,0,0-1.58-.14,27.71,27.71,0,0,1-.73,4.33h-5.46v-6.33h4.95a.8.8,0,0,0,0-1.59h-4.95v-6.34a.79.79,0,0,0,0-1.56v-6.3a.8.8,0,0,0,.65-.62v0a1,1,0,0,0,0-.17.8.8,0,0,0-.78-.8H2532a5.07,5.07,0,0,0-.87,0,16.61,16.61,0,0,0,0,33.21h.93a16.61,16.61,0,0,0,13.9-8.24.54.54,0,0,0,.07-.13A16.59,16.59,0,0,0,2547.78,690.27Zm-10.38,4.81c-1.15,3.4-3,5.74-5,6.24v-6.24Zm-6.57,6.24c-2-.5-3.83-2.86-5-6.24h5Zm0-7.82h-5.45a28.28,28.28,0,0,1-.87-6.33h6.32Zm-14.22-6.33h6.32a30.35,30.35,0,0,0,.79,6.33h-5.31A14.86,14.86,0,0,1,2516.61,687.17Zm1.8-7.92h5.31a30.35,30.35,0,0,0-.79,6.33h-6.32A14.86,14.86,0,0,1,2518.41,679.25Zm6.1,6.33a28.28,28.28,0,0,1,.87-6.33h5.45v6.33Zm6.32-14.15v6.24h-5C2527,674.3,2528.8,671.93,2530.83,671.43Zm-3.69.6a15.79,15.79,0,0,0-3,5.64h-4.76A15.27,15.27,0,0,1,2527.14,672Zm-7.74,23.05h4.76a15.48,15.48,0,0,0,3,5.64A15.27,15.27,0,0,1,2519.4,695.08Zm16.65,5.66a15.44,15.44,0,0,0,3-5.66h4.81A15,15,0,0,1,2536.05,700.74Z" transform="translate(-2515 -665)"/><path class="cls-2" d="M2543.5,679.25a4.75,4.75,0,1,1,4.75-4.75A4.75,4.75,0,0,1,2543.5,679.25Zm0-7.92a3.17,3.17,0,1,0,3.17,3.17A3.17,3.17,0,0,0,2543.5,671.33Z" transform="translate(-2515 -665)"/><path class="cls-2" d="M2543.5,690.33h0a.79.79,0,0,1-.65-.33l-7-9.9-.09-.11a9.5,9.5,0,1,1,15.52,0h0l-7.1,10A.79.79,0,0,1,2543.5,690.33ZM2537,679a.39.39,0,0,1,.08.1l6.45,9.09,6.4-9a.46.46,0,0,1,.13-.18,7.92,7.92,0,1,0-13.06,0Z" transform="translate(-2515 -665)"/></svg>