<svg id="Icons" xmlns="http://www.w3.org/2000/svg" width="36.22" height="43.15" viewBox="0 0 36.22 43.15">
  <defs>
    <style>
      .cls-1 {
        fill: #61c3b9;
      }

      .cls-2 {
        fill: #fbd925;
      }
    </style>
  </defs>
  <path class="cls-1" d="M40.6,28.47a21.94,21.94,0,0,1-3.32-7.07V17.83l3.17-2.15a.62.62,0,0,0,.29-.56l0-1.86c0-3.06-3.34-4.09-4.86-4.09H24a1.56,1.56,0,0,0-1.57,1.56v1.73A1.57,1.57,0,0,0,24,14h2.7a22.31,22.31,0,0,1-.44,2.54,7.92,7.92,0,0,1-2.16,3.51.66.66,0,0,0,0,.93.64.64,0,0,0,.45.18A.63.63,0,0,0,25,21a9.14,9.14,0,0,0,2.48-4.09A22.3,22.3,0,0,0,28,14.41c.84.54,2,1.56,2,2.37V17a1,1,0,0,0-.17.14c-.31.31-.31.72-.3,1.4V21.4a21.94,21.94,0,0,1-3.32,7.07c-2.85,4.24-3.92,7.25-3.69,10.38s.62,6.36,2.72,9.19a.68.68,0,0,0,.53.26H41a.68.68,0,0,0,.53-.26c2.1-2.83,2.5-6.09,2.72-9.19S43.45,32.71,40.6,28.47ZM24.94,12.71H24a.25.25,0,0,1-.25-.25V10.73a.25.25,0,0,1,.25-.25h1Zm2.74.1-.17-.05a1.39,1.39,0,0,0-.33,0h-.93V10.48h9.6c.95,0,3.55.66,3.55,2.79l0,1.52-3,2H31.27v-.06C31.21,15.11,29,13.26,27.68,12.81ZM30.8,18.5c0-.13,0-.26,0-.37H36v2.2H30.8V18.5ZM43,38.76c-.2,2.8-.55,5.74-2.28,8.23H26.06c-1.73-2.49-2.07-5.43-2.28-8.23s.76-5.53,3.47-9.55a22.77,22.77,0,0,0,3.53-7.57H36a22.86,22.86,0,0,0,3.53,7.57C42.22,33.23,43.19,35.91,43,38.76Z" transform="translate(-8.1 -5.15)"/>
  <path class="cls-2" d="M9.4,5.15a1.3,1.3,0,1,0,1.3,1.3A1.3,1.3,0,0,0,9.4,5.15Z" transform="translate(-8.1 -5.15)"/>
  <path class="cls-2" d="M12.84,7a1.3,1.3,0,1,0,1.3,1.3A1.31,1.31,0,0,0,12.84,7Z" transform="translate(-8.1 -5.15)"/>
  <path class="cls-2" d="M12.84,10.42a1.31,1.31,0,1,0,1.3,1.3A1.31,1.31,0,0,0,12.84,10.42Z" transform="translate(-8.1 -5.15)"/>
  <path class="cls-2" d="M16.25,8.63a1.3,1.3,0,1,0,1.3,1.3A1.31,1.31,0,0,0,16.25,8.63Z" transform="translate(-8.1 -5.15)"/>
  <path class="cls-2" d="M16.25,12.11a1.3,1.3,0,1,0,1.3,1.3A1.31,1.31,0,0,0,16.25,12.11Z" transform="translate(-8.1 -5.15)"/>
  <path class="cls-2" d="M19.64,10.31a1.31,1.31,0,1,0,1.3,1.31A1.31,1.31,0,0,0,19.64,10.31Z" transform="translate(-8.1 -5.15)"/>
  <path class="cls-2" d="M12.84,13.89a1.31,1.31,0,1,0,1.3,1.31A1.31,1.31,0,0,0,12.84,13.89Z" transform="translate(-8.1 -5.15)"/>
  <path class="cls-2" d="M9.4,8.74A1.3,1.3,0,1,0,10.7,10,1.3,1.3,0,0,0,9.4,8.74Z" transform="translate(-8.1 -5.15)"/>
  <path class="cls-2" d="M9.4,12.11a1.3,1.3,0,1,0,1.3,1.3A1.3,1.3,0,0,0,9.4,12.11Z" transform="translate(-8.1 -5.15)"/>
  <path class="cls-2" d="M9.4,15.48a1.3,1.3,0,1,0,1.3,1.3A1.3,1.3,0,0,0,9.4,15.48Z" transform="translate(-8.1 -5.15)"/>
</svg>
