<svg xmlns="http://www.w3.org/2000/svg" xmlns:xlink="http://www.w3.org/1999/xlink" width="100.207" height="71.682" viewBox="0 0 100.207 71.682">
  <defs>
    <clipPath id="clip-path">
      <rect id="Rectangle_1671" data-name="Rectangle 1671" width="100.207" height="71.682" fill="none"/>
    </clipPath>
  </defs>
  <g id="Group_2820" data-name="Group 2820" clip-path="url(#clip-path)">
    <path id="Path_3651" data-name="Path 3651" d="M98.925,168.992H1.087a1.087,1.087,0,1,1,0-2.174H98.925a1.087,1.087,0,1,1,0,2.174" transform="translate(0 -106.37)" fill="#4ac0b0"/>
    <path id="Path_3652" data-name="Path 3652" d="M98.925,193.992H1.087a1.087,1.087,0,1,1,0-2.174H98.925a1.087,1.087,0,1,1,0,2.174" transform="translate(0 -122.311)" fill="#4ac0b0"/>
    <path id="Path_3653" data-name="Path 3653" d="M106.625,99.984a1.087,1.087,0,0,1-1.087-1.087,11.816,11.816,0,0,1,.247-2.456,12.036,12.036,0,0,1,11.711-9.5,1.087,1.087,0,0,1,0,2.174,9.852,9.852,0,0,0-9.584,7.78,9.647,9.647,0,0,0-.2,2,1.087,1.087,0,0,1-1.087,1.087" transform="translate(-67.295 -55.436)" fill="#4ac0b0"/>
    <path id="Path_3654" data-name="Path 3654" d="M91.808,99.914a1.083,1.083,0,0,1-.781-.331,18.592,18.592,0,0,1-1.442-1.657,18.963,18.963,0,0,1-4.046-11.781,19.205,19.205,0,1,1,34.356,11.792,18.771,18.771,0,0,1-1.434,1.647,1.087,1.087,0,0,1-1.562-1.512,17.141,17.141,0,0,0,4.877-11.926A17.016,17.016,0,1,0,92.589,98.071a1.087,1.087,0,0,1-.781,1.843" transform="translate(-54.542 -42.683)" fill="#4ac0b0"/>
    <path id="Path_3655" data-name="Path 3655" d="M205.25,127.737a1.087,1.087,0,0,1-1.087-1.087,2.54,2.54,0,0,0-2.537-2.537,1.087,1.087,0,0,1,0-2.174,4.716,4.716,0,0,1,4.711,4.711,1.087,1.087,0,0,1-1.087,1.087" transform="translate(-127.871 -77.753)" fill="#4ac0b0"/>
    <path id="Path_3656" data-name="Path 3656" d="M199.471,122.231a1.087,1.087,0,0,1-.806-1.817,9.691,9.691,0,0,0,2.509-6.517,9.8,9.8,0,0,0-9.784-9.784,9.62,9.62,0,0,0-5.227,1.529,1.087,1.087,0,0,1-1.178-1.827,11.791,11.791,0,0,1,6.405-1.876,11.941,11.941,0,0,1,8.887,19.935,1.087,1.087,0,0,1-.807.357" transform="translate(-117.636 -65)" fill="#4ac0b0"/>
    <path id="Path_3657" data-name="Path 3657" d="M61.625,127.737a1.087,1.087,0,0,1-1.087-1.087,4.716,4.716,0,0,1,4.711-4.711,1.087,1.087,0,0,1,0,2.174,2.54,2.54,0,0,0-2.537,2.537,1.087,1.087,0,0,1-1.087,1.087" transform="translate(-38.601 -77.753)" fill="#4ac0b0"/>
    <path id="Path_3658" data-name="Path 3658" d="M44.416,122.231a1.084,1.084,0,0,1-.806-.358A11.94,11.94,0,0,1,58.9,103.815a1.087,1.087,0,0,1-1.178,1.827,9.616,9.616,0,0,0-5.227-1.529,9.8,9.8,0,0,0-9.784,9.784,9.7,9.7,0,0,0,2.509,6.518,1.087,1.087,0,0,1-.806,1.817" transform="translate(-25.849 -65)" fill="#4ac0b0"/>
    <path id="Path_3659" data-name="Path 3659" d="M162.062,20.984a6.523,6.523,0,1,1,6.523-6.523,6.53,6.53,0,0,1-6.523,6.523m0-10.871a4.348,4.348,0,1,0,4.348,4.348,4.353,4.353,0,0,0-4.348-4.348" transform="translate(-99.178 -5.062)" fill="#4ac0b0"/>
    <path id="Path_3660" data-name="Path 3660" d="M247.062,69.984a6.523,6.523,0,1,1,6.523-6.523,6.53,6.53,0,0,1-6.523,6.523m0-10.871a4.348,4.348,0,1,0,4.348,4.348,4.353,4.353,0,0,0-4.348-4.348" transform="translate(-153.377 -36.306)" fill="#4ac0b0"/>
    <path id="Path_3661" data-name="Path 3661" d="M17.061,64.984a6.523,6.523,0,1,1,6.523-6.523,6.53,6.53,0,0,1-6.523,6.523m0-10.871a4.348,4.348,0,1,0,4.348,4.348,4.353,4.353,0,0,0-4.348-4.348" transform="translate(-6.719 -33.118)" fill="#4ac0b0"/>
    <path id="Path_3662" data-name="Path 3662" d="M210.785,63.563a3.624,3.624,0,1,0-3.624,3.624,3.623,3.623,0,0,0,3.624-3.624" transform="translate(-129.784 -38.219)" fill="#4ac0b0"/>
    <path id="Path_3663" data-name="Path 3663" d="M260.785,128.563a3.624,3.624,0,1,0-3.624,3.624,3.623,3.623,0,0,0,3.624-3.624" transform="translate(-161.666 -79.666)" fill="#4ac0b0"/>
    <path id="Path_3664" data-name="Path 3664" d="M255.292,36.627h-5.435a1.087,1.087,0,1,1,0-2.174h5.435a1.087,1.087,0,1,1,0,2.174" transform="translate(-158.625 -21.969)" fill="#fcd823"/>
    <path id="Path_3665" data-name="Path 3665" d="M257.356,34.563a1.087,1.087,0,0,1-1.087-1.087V28.04a1.087,1.087,0,1,1,2.174,0v5.435a1.087,1.087,0,0,1-1.087,1.087" transform="translate(-163.407 -17.186)" fill="#fcd823"/>
    <path id="Path_3666" data-name="Path 3666" d="M7.831,122.674H2.4a1.087,1.087,0,1,1,0-2.174H7.831a1.087,1.087,0,1,1,0,2.174" transform="translate(-0.834 -76.835)" fill="#fcd823"/>
    <path id="Path_3667" data-name="Path 3667" d="M9.9,120.61a1.087,1.087,0,0,1-1.087-1.087v-5.435a1.087,1.087,0,0,1,2.174,0v5.435A1.087,1.087,0,0,1,9.9,120.61" transform="translate(-5.616 -72.053)" fill="#fcd823"/>
    <path id="Path_3668" data-name="Path 3668" d="M127.192,9.4h-5.435a1.449,1.449,0,1,1,0-2.9h5.435a1.449,1.449,0,0,1,0,2.9" transform="translate(-76.712 -4.145)" fill="#fcd823"/>
    <path id="Path_3669" data-name="Path 3669" d="M129.9,7.61a1.087,1.087,0,0,1-1.087-1.087V1.087a1.087,1.087,0,1,1,2.174,0V6.523A1.087,1.087,0,0,1,129.9,7.61" transform="translate(-82.133)" fill="#fcd823"/>
    <path id="Path_3670" data-name="Path 3670" d="M71.055,53.123a3.624,3.624,0,1,0-3.624,3.624,3.623,3.623,0,0,0,3.624-3.624" transform="translate(-40.686 -31.562)" fill="#4ac0b0"/>
  </g>
</svg>
