<svg xmlns="http://www.w3.org/2000/svg" xmlns:xlink="http://www.w3.org/1999/xlink" width="59" height="59.072" viewBox="0 0 59 59.072">
  <defs>
    <clipPath id="clip-path">
      <rect id="Rectangle_1590" data-name="Rectangle 1590" width="59" height="59.072" transform="translate(0 0)" fill="none"/>
    </clipPath>
  </defs>
  <g id="Group_2792" data-name="Group 2792" transform="translate(0 0)" clip-path="url(#clip-path)">
    <path id="Path_3587" data-name="Path 3587" d="M24.8,29.538a4.384,4.384,0,1,1,4.384,4.384A4.384,4.384,0,0,1,24.8,29.538" fill="#fdd53a"/>
    <path id="Path_3588" data-name="Path 3588" d="M29.5,59.072A29.536,29.536,0,1,1,59,29.537,29.55,29.55,0,0,1,29.5,59.072M29.5,2A27.536,27.536,0,1,0,57,29.537,27.55,27.55,0,0,0,29.5,2" fill="#54bcaf"/>
    <path id="Path_3589" data-name="Path 3589" d="M29.44,49.711a20.282,20.282,0,0,1-3.979-.395,20.177,20.177,0,0,1-7.247-36.559,20.127,20.127,0,0,1,27.942,5.578,20.206,20.206,0,0,1-5.57,27.975,19.99,19.99,0,0,1-11.146,3.4m-.077-38.356a18,18,0,0,0-10.038,3.064,18.209,18.209,0,0,0-5.018,25.205,18.133,18.133,0,0,0,25.168,5.024A18.18,18.18,0,0,0,29.363,11.355" fill="#54bcaf"/>
    <path id="Path_3590" data-name="Path 3590" d="M29.41,34.2a4.665,4.665,0,1,1,2.58-.787,4.66,4.66,0,0,1-2.58.787M29.4,26.867a2.658,2.658,0,1,0,.525.052,2.645,2.645,0,0,0-.525-.052" fill="#54bcaf"/>
    <path id="Path_3591" data-name="Path 3591" d="M29.4,23.994a1.919,1.919,0,0,1-1.715-1.287L24.46,17.278a2.173,2.173,0,0,1-.045-1.936,2.623,2.623,0,0,1,1.921-1.284,16.567,16.567,0,0,1,6.167.009,2.71,2.71,0,0,1,1.9,1.327,2.164,2.164,0,0,1-.06,1.883l-.053.1-3.174,5.328A1.917,1.917,0,0,1,29.4,23.994m-3.138-7.585L29.4,21.677l3.137-5.266a.571.571,0,0,0,.05-.179A2.27,2.27,0,0,0,32,16a14.612,14.612,0,0,0-5.23.009,1.111,1.111,0,0,0-.569.233c.021-.017.021.055.065.164" fill="#54bcaf"/>
    <path id="Path_3592" data-name="Path 3592" d="M29.53,45.252a16.082,16.082,0,0,1-3.2-.285,2.626,2.626,0,0,1-1.921-1.283,2.173,2.173,0,0,1,.046-1.937l.052-.1,3.174-5.329a1.785,1.785,0,0,1,3.429,0l3.228,5.43a2.165,2.165,0,0,1,.059,1.882,2.705,2.705,0,0,1-1.9,1.327h0a12.686,12.686,0,0,1-2.972.294M26.212,42.81a1.7,1.7,0,0,0,.554.2A14.6,14.6,0,0,0,32,43.023a1.441,1.441,0,0,0,.6-.255c-.009-.01-.019-.063-.056-.153L29.4,37.349l-3.138,5.267a.586.586,0,0,0-.052.194Z" fill="#54bcaf"/>
    <path id="Path_3593" data-name="Path 3593" d="M16.388,27.827l-.056,0a2.175,2.175,0,0,1-1.711-.909,2.622,2.622,0,0,1-.174-2.306,16.6,16.6,0,0,1,3.03-5.375,2.7,2.7,0,0,1,2.091-1.008,2.153,2.153,0,0,1,1.61.981l.06.093,3.081,5.382a1.787,1.787,0,0,1-1.682,2.99Zm-.1-2.03c.019,0,.075.017.167.028l6.125-.154-3.048-5.324a.585.585,0,0,0-.129-.131,2.4,2.4,0,0,0-.488.4h0a14.654,14.654,0,0,0-2.557,4.57,1.116,1.116,0,0,0-.076.612s0,0,.006,0" fill="#54bcaf"/>
    <path id="Path_3594" data-name="Path 3594" d="M39.387,40.815l-.1,0a2.178,2.178,0,0,1-1.667-.992l-.061-.094-3.082-5.382a1.788,1.788,0,0,1,1.683-2.99l6.249-.158.056,0a2.158,2.158,0,0,1,1.672.868,2.7,2.7,0,0,1,.225,2.311,16.692,16.692,0,0,1-3.016,5.385,2.672,2.672,0,0,1-1.963,1.05m-.12-2.138a.59.59,0,0,0,.143.141,1.775,1.775,0,0,0,.446-.383,14.7,14.7,0,0,0,2.576-4.565,1.442,1.442,0,0,0,.071-.646,1.442,1.442,0,0,1-.159-.026l-6.126.156Z" fill="#54bcaf"/>
    <path id="Path_3595" data-name="Path 3595" d="M19.4,40.8a2.668,2.668,0,0,1-1.966-1.053,16.623,16.623,0,0,1-3.007-5.387h0a2.677,2.677,0,0,1,.23-2.311,2.164,2.164,0,0,1,1.671-.865l.057-.005h.057l6.192.167a1.89,1.89,0,0,1,1.96.867,1.92,1.92,0,0,1-.284,2.126l-3.151,5.471a2.165,2.165,0,0,1-1.666.988l-.092,0m-3.038-6.945a14.646,14.646,0,0,0,2.567,4.562c.293.331.46.378.479.383-.013-.005.037-.044.109-.134l3.057-5.321-6.123-.165a.611.611,0,0,0-.178.043,2.256,2.256,0,0,0,.089.632" fill="#54bcaf"/>
    <path id="Path_3596" data-name="Path 3596" d="M42.416,27.848H42.36l-6.194-.165a1.787,1.787,0,0,1-1.676-2.995l3.15-5.47a2.16,2.16,0,0,1,1.612-.976,2.763,2.763,0,0,1,2.087,1.01,16.654,16.654,0,0,1,3.022,5.383,2.62,2.62,0,0,1-.178,2.3,2.17,2.17,0,0,1-1.711.905Zm-6.192-2.165,6.125.163a.579.579,0,0,0,.193-.049,1.764,1.764,0,0,0-.1-.584A14.678,14.678,0,0,0,39.9,20.636a1.438,1.438,0,0,0-.51-.4c-.006.012-.046.047-.1.123Z" fill="#54bcaf"/>
  </g>
</svg>
